<?xml version="1.0" standalone="no"?>
<!DOCTYPE svg PUBLIC "-//W3C//DTD SVG 20010904//EN"
 "http://www.w3.org/TR/2001/REC-SVG-20010904/DTD/svg10.dtd">
<svg version="1.0" xmlns="http://www.w3.org/2000/svg"
 width="300.000000pt" height="300.000000pt" viewBox="0 0 300.000000 300.000000"
 preserveAspectRatio="xMidYMid meet">
<metadata>
Created by potrace 1.10, written by Peter Selinger 2001-2011
</metadata>
<g transform="translate(0.000000,300.000000) scale(0.100000,-0.100000)"
fill="#000000" stroke="none">
<path d="M220 2908 c1 -70 3 -88 11 -75 16 27 17 167 2 167 -10 0 -13 -25 -13
-92z"/>
<path d="M1093 2982 c21 -23 22 -52 2 -52 -20 0 -20 -54 1 -74 14 -15 14 -16
0 -16 -24 0 -19 -15 9 -34 27 -18 34 -42 10 -32 -9 3 -15 0 -15 -9 0 -8 7 -15
15 -15 18 0 37 34 25 46 -5 5 -15 28 -23 50 -12 37 -12 45 2 68 10 17 21 24
31 20 8 -4 29 -9 45 -12 17 -3 40 -12 53 -20 12 -8 25 -12 29 -9 12 12 -18 35
-62 48 -25 7 -45 17 -45 22 0 5 -7 3 -16 -4 -14 -11 -18 -10 -30 5 -7 11 -11
23 -8 27 3 5 -5 9 -17 9 -21 0 -21 -1 -6 -18z"/>
<path d="M1297 2988 c-5 -15 9 -38 25 -38 12 0 10 14 -5 34 -12 16 -15 17 -20
4z"/>
<path d="M1460 2970 c0 -20 -5 -30 -15 -30 -8 0 -15 4 -15 9 0 7 -41 8 -89 2
-2 -1 3 -8 10 -17 9 -11 23 -14 46 -11 26 5 35 2 43 -14 6 -10 17 -19 25 -19
8 0 21 -10 29 -22 15 -21 14 -24 -11 -50 -15 -15 -22 -28 -16 -28 6 0 18 -2
26 -5 24 -10 26 89 1 116 -10 11 -16 34 -16 59 0 22 -3 40 -9 40 -5 0 -9 -13
-9 -30z"/>
<path d="M1800 2990 c-13 -8 -13 -12 -1 -32 13 -20 23 -114 21 -183 0 -11 0
-44 -1 -73 0 -47 -2 -52 -18 -47 -12 3 -21 0 -25 -10 -3 -8 -1 -15 5 -15 6 0
8 -4 5 -8 -3 -5 6 -19 19 -30 14 -12 26 -19 27 -14 1 4 2 50 3 102 1 52 4 124
6 160 6 80 -17 165 -41 150z"/>
<path d="M2026 2973 c4 -16 13 -39 21 -52 11 -16 13 -36 8 -67 -5 -34 -3 -44
7 -42 7 2 14 -7 16 -19 4 -24 31 -32 33 -10 2 24 -3 52 -15 82 -7 17 -19 48
-26 70 -7 22 -17 46 -22 53 -18 21 -29 13 -22 -15z"/>
<path d="M2169 2970 c0 -16 -1 -45 -1 -63 -1 -19 3 -40 8 -48 5 -8 8 -67 7
-132 -1 -64 2 -127 7 -140 5 -14 9 56 9 196 1 186 -1 217 -14 217 -10 0 -15
-10 -16 -30z"/>
<path d="M2288 2961 c-2 -28 0 -37 8 -30 6 5 14 6 17 2 11 -10 8 -61 -3 -68
-6 -4 -8 -11 -5 -16 4 -5 -1 -9 -9 -9 -9 0 -16 -5 -16 -11 0 -6 6 -9 14 -6 8
3 17 1 19 -6 3 -9 9 -9 22 -1 24 13 28 46 9 60 -21 17 -21 80 1 104 18 20 18
20 -17 20 -34 0 -36 -2 -40 -39z"/>
<path d="M2826 2960 c2 -58 14 -63 14 -7 0 26 -4 47 -8 47 -5 0 -7 -18 -6 -40z"/>
<path d="M660 2961 c0 -42 28 -48 59 -14 18 19 19 22 4 9 -25 -20 -43 -14 -43
15 0 10 -4 19 -10 19 -5 0 -10 -13 -10 -29z"/>
<path d="M2960 2910 c0 -22 4 -40 8 -40 17 0 32 25 32 52 0 21 -5 28 -20 28
-17 0 -20 -7 -20 -40z"/>
<path d="M772 2888 c-24 -27 -40 -53 -37 -57 4 -3 12 2 19 11 7 10 15 15 18
13 3 -3 11 8 18 25 7 16 19 30 26 30 8 0 14 7 14 15 0 24 -12 16 -58 -37z"/>
<path d="M1300 2864 c0 -10 -9 -34 -20 -51 -11 -18 -16 -33 -11 -33 5 0 12 7
15 16 4 11 13 14 31 10 21 -5 25 -3 25 17 0 13 -9 32 -20 42 -19 17 -20 17
-20 -1z"/>
<path d="M940 2850 c-6 -11 -19 -20 -30 -20 -10 0 -22 -4 -25 -10 -3 -5 0 -7
8 -4 8 3 18 1 22 -5 11 -19 45 -13 45 8 0 11 5 23 10 26 11 7 4 25 -10 25 -5
0 -14 -9 -20 -20z"/>
<path d="M2800 2855 c-1 -5 -4 -21 -5 -34 -2 -24 -40 -60 -62 -61 -7 0 -13 -6
-13 -14 0 -13 4 -13 28 0 56 29 69 46 61 84 -3 19 -8 31 -9 25z"/>
<path d="M580 2815 c-7 -8 -16 -13 -20 -10 -10 6 -33 -22 -36 -42 -5 -31 -205
-222 -226 -216 -5 2 -7 0 -7 -5 5 -28 -4 -53 -22 -63 -25 -13 -40 1 -32 32 6
20 23 27 23 9 0 -5 4 -10 9 -10 4 0 8 10 7 23 -1 14 -7 22 -18 21 -19 -2 -32
40 -24 77 3 13 2 58 -3 99 l-8 75 -2 -70 c-2 -93 -3 -337 -2 -350 1 -5 17 15
38 45 20 30 78 98 128 150 85 88 164 174 209 228 11 12 14 22 9 22 -6 0 -16
-7 -23 -15z"/>
<path d="M677 2784 c-15 -15 -27 -32 -27 -38 0 -19 15 -35 26 -28 10 7 36 83
30 89 -2 2 -15 -9 -29 -23z"/>
<path d="M1170 2790 c-12 -8 -10 -10 9 -10 14 0 32 -7 41 -15 16 -14 18 -14
23 -1 11 27 -42 46 -73 26z"/>
<path d="M2983 2789 c-7 -7 -13 -27 -13 -43 0 -28 1 -29 16 -14 9 8 14 27 12
42 -2 22 -5 25 -15 15z"/>
<path d="M1327 2763 c-6 -33 5 -49 39 -56 21 -4 24 -2 18 17 -4 11 -17 31 -29
44 l-23 22 -5 -27z"/>
<path d="M2630 2756 c0 -22 -9 -45 -26 -65 -28 -34 -19 -39 27 -15 24 12 30
20 25 37 -3 12 -6 34 -6 50 0 15 -4 27 -10 27 -5 0 -10 -15 -10 -34z"/>
<path d="M970 2731 c-8 -6 -17 -8 -21 -5 -4 2 -14 -7 -22 -20 -14 -21 -14 -24
4 -40 17 -14 20 -14 25 -2 3 8 3 20 -1 26 -4 7 2 14 14 17 12 3 21 12 21 19 0
16 -1 17 -20 5z"/>
<path d="M2296 2720 c8 -33 15 -209 8 -192 -10 22 -24 12 -24 -18 0 -24 3 -28
18 -23 19 8 122 72 122 77 0 7 -51 -7 -56 -15 -3 -5 -11 -9 -18 -9 -20 0 -26
69 -10 108 7 18 12 38 10 45 -14 47 -16 49 -30 38 -11 -9 -15 -9 -20 1 -3 7
-4 2 0 -12z"/>
<path d="M1580 2700 c-13 -8 -7 -40 7 -40 5 0 14 9 20 19 10 15 9 20 -1 24 -7
3 -19 2 -26 -3z"/>
<path d="M2120 2691 c0 -28 14 -33 32 -11 18 20 14 30 -14 30 -11 0 -18 -7
-18 -19z"/>
<path d="M1130 2691 c0 -13 26 -32 33 -24 4 3 9 -2 13 -11 7 -17 77 -56 101
-56 23 0 -8 39 -52 64 -46 26 -95 41 -95 27z"/>
<path d="M1416 2675 c-2 -7 -2 -15 0 -18 9 -9 45 5 41 16 -5 15 -35 17 -41 2z"/>
<path d="M2757 2660 c-26 -16 -47 -32 -47 -35 0 -7 30 -65 33 -65 2 0 4 10 4
23 4 47 14 68 39 77 33 13 47 4 41 -26 -5 -27 8 -42 17 -19 7 20 -13 75 -28
75 -7 0 -33 -13 -59 -30z"/>
<path d="M426 2513 c-86 -92 -156 -170 -156 -173 0 -4 12 -12 28 -19 22 -10
25 -10 15 0 -22 22 -15 48 15 56 15 4 33 6 40 5 6 -2 13 3 13 10 3 27 4 34 17
56 14 25 71 82 81 82 4 0 15 15 25 34 10 18 28 38 41 44 18 8 54 72 41 72 -2
0 -74 -75 -160 -167z"/>
<path d="M660 2641 c0 -34 3 -36 49 -20 26 9 29 14 20 26 -9 9 -15 11 -23 3
-13 -13 -39 -13 -31 -1 3 5 1 12 -5 16 -6 4 -10 -6 -10 -24z"/>
<path d="M1470 2650 c0 -15 -7 -20 -29 -20 -16 0 -31 -6 -35 -15 -7 -18 4 -19
38 -4 29 13 52 1 66 -36 9 -20 9 -20 9 1 1 12 -5 27 -13 33 -8 7 -13 23 -10
37 3 17 0 24 -11 24 -8 0 -15 -9 -15 -20z"/>
<path d="M2973 2545 c1 -60 6 -85 14 -85 8 0 11 11 9 33 -2 17 -4 56 -5 85 0
28 -5 52 -10 52 -6 0 -9 -37 -8 -85z"/>
<path d="M2282 2585 c0 -19 4 -35 9 -35 5 0 9 16 9 35 0 19 -4 35 -9 35 -5 0
-9 -16 -9 -35z"/>
<path d="M1615 2561 c-7 -12 31 -25 46 -15 8 4 7 9 -2 15 -18 11 -36 11 -44 0z"/>
<path d="M1532 2535 c-21 -24 -21 -25 -2 -25 10 0 24 9 30 20 13 24 28 26 26
4 0 -9 5 -19 12 -21 15 -6 16 19 0 35 -19 19 -42 14 -66 -13z"/>
<path d="M727 2544 c-8 -8 3 -34 14 -34 4 0 13 9 19 20 9 17 8 20 -8 20 -10 0
-21 -3 -25 -6z"/>
<path d="M1783 2542 c-24 -4 -29 -18 -14 -41 7 -11 10 -9 16 8 7 22 20 27 30
11 7 -12 25 -13 25 -2 0 13 -34 28 -57 24z"/>
<path d="M1861 2541 c-10 -6 -11 -17 -6 -37 7 -23 9 -25 13 -10 3 15 6 16 13
5 7 -11 9 -11 9 -1 0 10 5 10 21 1 12 -6 32 -9 45 -6 27 5 30 -9 9 -37 -13
-17 -15 -18 -21 -2 -6 15 -7 15 -20 -1 -19 -26 -17 -31 11 -25 14 2 34 16 45
30 11 13 20 20 20 14 0 -6 7 -9 15 -6 21 9 19 -13 -5 -44 -21 -26 -12 -46 17
-35 16 6 17 -9 1 -25 -9 -9 -8 -12 4 -12 21 0 28 -20 14 -42 -8 -13 -7 -23 2
-38 13 -22 7 -114 -10 -140 -7 -11 -8 -10 -3 5 6 19 5 19 -11 3 -16 -16 -16
-19 -2 -35 8 -10 18 -27 23 -38 6 -16 11 -7 26 43 10 35 22 69 28 76 11 13 -3
81 -21 103 -12 14 16 48 31 38 6 -3 5 8 -1 27 -5 18 -12 43 -15 56 -6 27 -29
23 -25 -4 2 -14 1 -16 -6 -6 -11 16 -21 15 -41 -1 -12 -10 -12 -9 0 11 8 12
19 22 26 22 15 0 17 28 4 49 -5 7 -14 11 -19 7 -6 -4 -16 2 -21 12 -11 21 -48
35 -56 22 -7 -11 -42 -1 -56 16 -13 16 -19 17 -38 5z"/>
<path d="M515 2510 c-3 -5 -4 -10 -1 -10 3 0 1 -11 -4 -25 -9 -24 -8 -25 25
-25 l35 0 -17 35 c-17 36 -27 43 -38 25z"/>
<path d="M1457 2486 c-29 -26 -37 -40 -35 -59 2 -15 7 -29 11 -33 11 -11 8
-26 -3 -19 -11 7 -12 -21 -1 -49 6 -17 9 -15 20 12 8 18 19 33 25 34 6 1 27 3
46 4 19 2 49 5 65 7 17 2 41 -3 53 -11 19 -13 25 -13 32 -2 5 8 18 11 39 7 28
-6 30 -4 27 16 -3 12 -5 24 -5 27 -1 3 -5 -1 -9 -8 -11 -17 -52 -24 -52 -9 0
14 -60 16 -60 2 0 -5 -7 -2 -14 8 -10 12 -16 15 -21 7 -4 -6 -13 -9 -20 -6 -7
2 -16 -2 -19 -11 -6 -14 -9 -13 -31 1 -14 9 -25 12 -25 6 0 -5 -4 -10 -10 -10
-5 0 -10 11 -10 25 0 20 8 29 33 40 25 11 29 15 15 20 -9 4 -14 13 -11 21 8
20 2 18 -40 -20z"/>
<path d="M2830 2488 c0 -21 5 -38 10 -38 13 0 13 40 0 60 -7 11 -10 5 -10 -22z"/>
<path d="M846 2484 c-9 -24 -7 -54 4 -54 6 0 10 16 10 35 0 38 -4 44 -14 19z"/>
<path d="M942 2442 c1 -28 3 -50 5 -48 9 9 11 47 3 73 -7 23 -8 19 -8 -25z"/>
<path d="M657 2474 c-7 -13 -4 -491 4 -498 14 -14 33 28 30 69 -2 32 2 46 15
53 16 9 15 11 -4 21 -21 11 -22 18 -21 171 0 144 -8 209 -24 184z"/>
<path d="M2772 2333 l3 -153 33 0 c35 0 41 13 18 45 -8 12 -17 61 -21 120 -4
62 -12 106 -21 119 -14 19 -15 6 -12 -131z"/>
<path d="M2358 2433 l-48 -25 0 -74 c0 -54 3 -73 13 -71 7 1 13 -11 15 -31 3
-24 -3 -38 -20 -52 -13 -11 -18 -20 -13 -21 18 -2 90 3 96 7 8 5 -10 85 -24
102 -6 8 -6 12 2 12 6 0 11 5 11 11 0 5 -4 7 -10 4 -5 -3 -10 0 -10 9 0 8 6
17 13 19 10 4 10 6 0 6 -8 1 -13 14 -13 32 0 17 4 28 10 24 6 -3 10 4 10 16 0
12 7 31 17 41 22 24 7 22 -49 -9z m-2 -78 c-4 -14 -2 -25 3 -25 5 0 7 -9 4
-20 -9 -34 -19 -22 -22 25 -1 29 2 45 10 45 7 0 9 -9 5 -25z"/>
<path d="M1780 2391 c0 -11 25 -21 53 -21 12 0 17 4 12 9 -15 13 -65 23 -65
12z"/>
<path d="M929 2299 c-3 -7 -2 -25 2 -39 7 -24 7 -24 8 -2 1 12 6 22 11 22 6 0
10 8 10 18 0 13 -2 14 -9 3 -7 -11 -9 -11 -13 0 -3 10 -5 10 -9 -2z"/>
<path d="M219 2298 c0 -2 -2 -76 -4 -165 -2 -121 0 -163 9 -163 13 0 16 18 15
98 0 29 3 58 8 65 12 19 12 37 1 37 -7 0 -9 17 -5 46 5 50 0 84 -14 84 -5 0
-9 -1 -10 -2z"/>
<path d="M2993 2240 c0 -36 2 -50 4 -32 2 17 2 47 0 65 -2 17 -4 3 -4 -33z"/>
<path d="M534 2252 c-7 -18 -7 -35 -1 -50 7 -15 6 -31 -3 -52 -12 -29 -16 -31
-56 -29 -23 2 -49 -2 -57 -9 -7 -6 -16 -10 -18 -7 -3 2 -30 7 -61 10 -44 4
-57 2 -61 -10 -4 -8 -2 -17 2 -20 10 -6 259 2 269 9 11 6 15 186 5 186 -5 0
-13 -13 -19 -28z"/>
<path d="M1387 2262 c-10 -11 -15 -26 -11 -36 9 -23 23 -20 30 9 9 37 1 49
-19 27z"/>
<path d="M1845 2267 c-9 -21 -5 -26 23 -32 15 -2 19 0 15 11 -3 7 -9 12 -13 9
-5 -3 -10 3 -13 12 -4 17 -4 17 -12 0z"/>
<path d="M1555 2193 c-27 -3 -58 -11 -67 -20 -13 -11 -21 -13 -30 -5 -27 21
-88 16 -88 -7 0 -5 19 -12 43 -17 l42 -8 -37 -4 c-43 -4 -53 -30 -17 -39 21
-6 21 -7 4 -19 -17 -13 -17 -14 0 -20 21 -8 43 17 52 58 4 20 12 27 37 31 17
3 55 11 85 17 44 9 60 9 93 -5 50 -19 59 -14 21 13 -33 23 -70 30 -138 25z"/>
<path d="M2861 2155 c-2 -11 -2 -62 -1 -112 1 -51 -2 -93 -7 -93 -4 0 -57 -3
-118 -6 -60 -4 -143 -6 -183 -7 l-73 0 5 -76 c3 -42 5 -102 5 -134 1 -56 2
-58 24 -51 27 9 61 12 203 14 118 2 151 10 117 28 -10 6 -24 8 -30 4 -6 -4
-71 -7 -144 -7 l-133 0 -7 28 c-8 30 -6 153 2 161 5 6 249 19 306 17 27 -1 35
4 49 31 9 18 23 37 30 41 20 11 17 28 -3 25 -14 -2 -18 3 -17 22 2 41 5 46 14
25 7 -16 9 -11 9 20 1 29 -2 36 -9 25 -12 -20 -27 -4 -33 35 -2 19 -5 23 -6
10z"/>
<path d="M961 2143 c-1 -7 -8 -13 -16 -13 -8 0 -15 -4 -15 -10 0 -6 30 -10 70
-10 40 0 70 4 70 10 0 6 -22 10 -49 10 -30 0 -51 5 -54 13 -4 10 -6 10 -6 0z"/>
<path d="M1165 2143 c3 -7 0 -13 -7 -13 -7 -1 -2 -7 12 -15 32 -19 40 -18 40
1 0 9 -6 14 -12 11 -7 -2 -19 3 -26 12 -8 9 -11 10 -7 4z"/>
<path d="M1270 2143 c-62 -8 -58 -23 6 -23 64 0 99 12 69 24 -9 3 -22 5 -28 4
-7 0 -28 -3 -47 -5z"/>
<path d="M1563 2133 c-23 -4 -33 -23 -13 -23 6 0 10 -8 10 -19 0 -25 48 -45
80 -33 21 8 20 10 -21 17 l-44 7 33 14 c29 13 37 13 64 0 31 -16 48 -14 48 6
0 6 -3 8 -6 5 -4 -3 -15 0 -26 7 -11 8 -27 12 -38 9 -10 -3 -21 0 -24 6 -7 11
-22 12 -63 4z"/>
<path d="M2289 2127 c-15 -11 -17 -51 -20 -329 -2 -174 -1 -319 2 -323 9 -8
18 193 19 410 0 216 1 220 23 218 12 -1 17 4 13 14 -3 8 -6 17 -6 19 0 8 -15
3 -31 -9z"/>
<path d="M2959 2110 c-4 -14 -4 -37 0 -115 2 -28 3 -28 12 -9 7 13 7 42 2 80
-5 32 -11 52 -14 44z"/>
<path d="M1895 2090 c-4 -6 -14 -8 -23 -6 -14 5 -17 -1 -16 -34 1 -23 -4 -44
-12 -51 -8 -6 -14 -26 -14 -44 0 -24 -5 -34 -20 -38 -11 -3 -20 -1 -20 3 0 4
-9 6 -20 3 -28 -8 -16 -17 23 -17 24 -1 32 -6 34 -21 3 -20 3 -20 -6 0 -9 19
-10 19 -10 -2 -1 -12 3 -24 8 -27 14 -9 -11 -67 -26 -62 -7 3 -13 -2 -13 -10
0 -9 5 -13 13 -9 21 12 -66 -64 -95 -82 -16 -10 -28 -20 -28 -24 0 -4 -16 -16
-35 -28 -33 -19 -65 -19 -65 0 0 11 -23 7 -32 -6 -5 -6 -8 -5 -8 3 0 6 -11 12
-23 12 -43 0 -62 38 -69 133 l-3 39 68 4 c37 2 76 8 87 14 17 9 20 8 20 -9 0
-41 18 -29 22 14 4 54 -9 95 -42 135 -30 36 -45 38 -45 6 0 -17 3 -21 11 -15
8 6 17 1 29 -17 22 -34 13 -40 -32 -21 -52 22 -121 20 -136 -4 -17 -28 -28
-23 -15 6 6 14 18 25 25 25 8 0 11 5 8 10 -8 12 -37 9 -47 -5 -12 -17 -20 3
-9 23 6 12 11 31 11 43 0 18 -2 21 -12 10 -9 -8 -13 -41 -12 -99 1 -70 7 -98
28 -146 14 -32 26 -71 26 -86 0 -65 43 -120 82 -105 22 9 68 -12 68 -31 0 -9
-13 -32 -30 -51 -16 -18 -30 -40 -30 -47 0 -15 -63 -63 -140 -108 -86 -50
-126 -129 -160 -313 -5 -33 -23 -127 -39 -210 -15 -82 -27 -179 -27 -215 l1
-65 53 -3 52 -3 0 48 c0 27 5 54 11 60 8 8 8 17 1 29 -9 17 -11 15 -17 -11
-11 -50 -14 -55 -27 -53 -7 2 -12 -2 -13 -9 0 -18 -22 -36 -34 -29 -16 10 -14
143 3 196 8 25 20 79 27 120 6 41 19 98 29 126 10 27 21 72 23 98 3 26 10 53
15 59 6 7 12 21 14 32 3 23 10 32 56 81 17 20 32 33 32 29 0 -4 20 9 44 29 39
32 66 45 66 32 0 -3 -4 -16 -10 -30 -17 -45 -2 -28 24 27 13 28 27 64 30 80 4
15 11 27 17 27 7 0 9 -11 6 -30 -8 -36 3 -44 31 -24 20 13 20 17 6 49 -18 44
-18 59 2 51 8 -3 12 -2 9 4 -3 6 -1 10 5 10 6 0 9 12 8 27 -2 20 2 28 17 31
15 3 122 79 180 127 20 16 37 81 60 220 2 11 4 20 5 20 1 0 4 13 6 30 3 16 11
37 18 45 21 25 28 40 17 40 -5 0 -13 -5 -16 -10z m-396 -201 c-80 -7 -85 -6
-74 11 4 7 26 10 56 7 27 -3 52 -1 55 5 3 5 12 4 22 -4 13 -11 4 -14 -59 -19z
m-83 -86 c-7 -7 -36 60 -35 79 0 7 10 -7 21 -30 11 -24 17 -46 14 -49z m152
71 c42 -9 22 -22 -44 -29 -63 -7 -94 1 -81 22 6 9 91 15 125 7z"/>
<path d="M2005 2070 c21 -23 16 -82 -9 -109 -9 -9 -18 -43 -22 -74 -4 -32 -11
-60 -15 -63 -11 -6 -12 -58 -2 -68 4 -4 13 22 19 57 7 35 24 93 38 129 31 76
33 109 8 131 -26 24 -39 21 -17 -3z"/>
<path d="M820 2026 c0 -35 1 -35 20 -19 21 18 27 28 10 18 -5 -3 -10 1 -10 9
0 8 -4 18 -10 21 -6 4 -10 -8 -10 -29z"/>
<path d="M1940 2031 c0 -5 7 -11 15 -15 18 -7 21 -50 3 -44 -7 3 -19 15 -25
29 -12 23 -13 23 -13 2 0 -12 5 -25 12 -29 8 -5 5 -11 -7 -20 -10 -8 -16 -16
-13 -19 9 -9 68 26 79 48 10 17 8 24 -11 39 -24 20 -40 23 -40 9z"/>
<path d="M511 2001 c-7 -5 -59 -9 -115 -10 -55 -1 -105 -6 -109 -10 -4 -4 57
-7 137 -7 137 1 144 2 129 19 -18 19 -22 20 -42 8z"/>
<path d="M646 1935 c-4 -12 4 -20 29 -31 41 -17 45 -17 45 -4 0 6 -8 13 -17
17 -10 3 -25 12 -34 20 -14 12 -17 12 -23 -2z"/>
<path d="M795 1880 c-10 -16 -2 -21 63 -46 73 -27 93 -61 90 -154 -2 -60 -1
-65 17 -62 11 2 70 6 130 8 186 7 297 16 290 22 -6 7 -311 4 -366 -3 -21 -3
-30 1 -34 16 -4 10 -10 19 -14 19 -5 0 -7 21 -6 48 2 43 -14 86 -38 103 -17
12 28 20 112 20 90 -1 247 14 221 20 -8 1 -105 3 -215 3 -110 1 -210 5 -221 9
-14 6 -24 5 -29 -3z"/>
<path d="M1687 1858 c-4 -12 -3 -34 0 -47 6 -23 7 -24 14 -6 11 28 11 75 0 75
-5 0 -11 -10 -14 -22z"/>
<path d="M1465 1751 c9 -36 24 -42 46 -20 31 31 27 42 -14 44 -37 2 -38 1 -32
-24z"/>
<path d="M1614 1761 c3 -5 -3 -20 -14 -34 -21 -27 -28 -63 -9 -52 6 4 8 14 5
22 -4 10 -2 13 8 10 8 -3 17 1 20 9 10 25 7 54 -5 54 -5 0 -8 -4 -5 -9z"/>
<path d="M316 1731 c-3 -5 0 -14 8 -20 10 -8 16 -8 25 3 9 11 8 15 -5 20 -20
8 -22 8 -28 -3z"/>
<path d="M669 1724 c15 -11 26 -13 30 -6 3 5 15 12 26 15 11 2 -2 5 -30 6 -48
1 -49 1 -26 -15z"/>
<path d="M1960 1733 c0 -4 -34 -34 -75 -67 -41 -32 -75 -62 -75 -67 0 -5 -23
-34 -51 -66 -85 -93 -190 -270 -133 -222 9 7 34 40 57 74 22 33 43 62 47 65 3
3 32 39 63 82 59 78 142 158 164 158 14 0 53 -57 53 -78 0 -7 -19 -32 -43 -55
-23 -23 -59 -62 -79 -87 -28 -35 -48 -48 -83 -58 -40 -11 -45 -15 -35 -27 11
-14 15 -14 30 0 9 8 24 15 33 15 9 0 21 8 26 18 5 10 33 40 62 68 28 27 63 61
77 76 l25 28 33 -38 c17 -21 48 -46 68 -57 20 -11 36 -23 36 -27 0 -4 14 -15
30 -23 17 -9 28 -20 25 -25 -4 -6 2 -13 12 -16 27 -9 56 -23 78 -40 17 -12 18
-16 5 -24 -11 -7 -9 -11 13 -19 15 -6 32 -22 39 -36 6 -14 16 -25 22 -25 11 0
28 -26 42 -62 8 -22 24 -24 24 -4 0 50 -74 160 -137 204 -27 18 -64 44 -83 57
-19 13 -52 34 -73 45 -33 18 -116 97 -117 110 -1 24 -52 126 -64 128 -9 2 -16
0 -16 -5z"/>
<path d="M760 1710 c0 -5 11 -10 24 -10 14 0 28 5 31 10 4 6 -7 10 -24 10 -17
0 -31 -4 -31 -10z"/>
<path d="M2874 1658 c10 -121 17 -395 10 -411 -9 -24 -16 -21 -42 17 -21 30
-31 36 -77 41 -32 4 -61 3 -74 -4 -19 -11 -19 -13 -4 -31 12 -14 21 -16 34 -9
48 25 139 -18 139 -66 0 -13 6 -25 14 -28 10 -4 13 5 13 36 0 32 6 46 27 63
26 23 35 54 16 54 -5 0 -10 5 -10 11 0 5 4 8 8 5 4 -2 9 8 10 24 1 16 -2 32
-8 35 -6 4 -7 23 -4 46 4 26 3 39 -5 39 -14 0 -15 37 -1 45 14 9 12 52 -2 58
-10 3 -10 9 0 26 16 28 15 41 -3 41 -13 0 -19 19 -18 58 1 6 -6 12 -13 12 -12
0 -14 -13 -10 -62z"/>
<path d="M599 1649 c-11 -6 -8 -9 9 -9 13 0 30 -7 39 -15 8 -9 18 -14 20 -11
7 6 -17 30 -38 38 -9 3 -22 2 -30 -3z"/>
<path d="M1706 1591 c-4 -5 -1 -11 4 -13 6 -2 -16 -24 -49 -48 -59 -44 -77
-66 -44 -53 18 7 19 10 -29 -66 -20 -33 -29 -40 -34 -28 -7 18 -44 19 -44 0 0
-7 5 -13 10 -13 6 0 10 -4 10 -9 0 -5 -9 -7 -20 -4 -16 4 -19 2 -13 -12 4 -12
3 -16 -5 -11 -6 3 -13 2 -17 -3 -10 -17 59 -8 72 9 10 13 12 11 13 -12 0 -15
-18 -63 -40 -105 -22 -43 -40 -84 -40 -90 0 -7 -4 -13 -9 -13 -10 0 -51 -79
-51 -99 0 -22 18 -1 25 29 4 16 20 40 35 54 16 13 31 30 32 38 2 7 7 16 11 19
4 3 10 23 14 45 4 25 16 48 35 66 25 22 28 29 18 47 -9 18 -3 35 37 108 39 70
58 94 96 119 62 41 68 47 34 39 -17 -5 -27 -3 -27 4 0 13 -17 15 -24 2z"/>
<path d="M337 1543 c-9 -9 -7 -311 3 -348 4 -16 9 -23 10 -15 5 36 4 370 -1
370 -3 0 -9 -3 -12 -7z"/>
<path d="M714 1528 c3 -13 6 -26 6 -30 0 -5 9 -8 20 -8 21 0 18 23 -6 48 -19
18 -27 15 -20 -10z"/>
<path d="M954 1386 c-8 -21 3 -49 16 -41 5 3 10 15 10 25 0 25 -18 36 -26 16z"/>
<path d="M1708 1258 c-75 -78 -128 -161 -128 -201 0 -10 -11 -42 -25 -70 -13
-29 -32 -81 -41 -117 -15 -62 -101 -239 -160 -332 -16 -23 -51 -68 -79 -99
-45 -50 -84 -119 -67 -119 4 0 5 -22 4 -50 -4 -53 13 -70 24 -26 4 17 11 23
22 19 10 -4 9 0 -6 15 -29 29 -18 61 55 162 32 44 58 85 58 91 0 5 5 13 11 17
5 4 16 22 24 41 8 19 28 53 44 75 17 23 37 52 43 66 19 37 53 141 53 159 0 9
8 33 18 52 10 20 28 64 41 99 31 85 43 104 134 209 43 50 73 91 66 91 -7 0
-48 -37 -91 -82z"/>
<path d="M1447 1283 c-4 -3 -7 -14 -7 -24 0 -9 -4 -19 -9 -21 -5 -1 -2 -10 7
-18 14 -13 15 -12 9 3 -3 9 -2 17 4 17 5 0 12 -7 15 -15 6 -16 24 -11 24 6 0
6 -4 8 -9 4 -6 -3 -15 3 -20 14 -14 26 -14 29 7 34 14 4 14 5 1 6 -9 0 -19 -2
-22 -6z"/>
<path d="M1406 1193 c-21 -69 -66 -238 -66 -247 0 -6 14 18 31 54 18 39 35 93
40 134 9 68 6 96 -5 59z"/>
<path d="M1130 1191 c0 -6 3 -12 8 -12 36 -6 52 -5 49 5 -5 14 -57 21 -57 7z"/>
<path d="M1902 1147 c-15 -32 -23 -115 -12 -122 6 -4 10 10 10 33 0 21 5 53
11 71 13 38 7 51 -9 18z"/>
<path d="M2464 1153 c2 -10 7 -32 11 -50 5 -23 11 -30 21 -26 8 3 33 -2 54
-12 32 -15 42 -15 55 -5 8 7 15 16 15 21 0 14 -57 39 -88 39 -21 0 -32 7 -40
25 -13 28 -36 34 -28 8z"/>
<path d="M2652 1115 c-11 -23 -10 -23 19 -13 34 12 35 14 10 27 -15 8 -20 6
-29 -14z"/>
<path d="M285 1123 c-10 -3 -29 -12 -42 -20 -13 -8 -30 -12 -39 -9 -9 3 -34 1
-55 -6 -35 -10 -40 -15 -46 -50 -7 -45 -45 -80 -66 -59 -20 20 -37 12 -37 -19
0 -25 6 -32 48 -50 57 -26 93 -30 100 -11 3 10 -2 13 -22 9 -14 -3 -26 -2 -26
3 0 4 -10 11 -21 14 -12 4 -17 10 -12 14 5 3 12 14 16 24 6 15 25 21 65 20 19
-1 14 15 -8 27 -16 9 -18 15 -10 29 7 15 22 19 66 20 31 0 65 -4 74 -9 15 -8
17 -6 13 11 -7 27 12 39 48 29 15 -5 30 -5 34 -2 3 4 3 -1 -1 -11 -4 -12 -1
-17 10 -17 9 0 16 -8 16 -20 0 -15 7 -20 25 -20 27 0 34 15 10 24 -8 3 -15 12
-15 21 0 8 -10 26 -22 40 -21 25 -53 30 -103 18z"/>
<path d="M853 1119 c-19 -7 -60 -69 -46 -69 5 0 16 9 26 20 24 28 89 27 117
-2 11 -12 20 -24 21 -27 4 -35 11 -55 23 -67 8 -7 16 -19 18 -25 3 -8 17 -7
48 4 32 11 47 12 52 4 8 -14 54 8 62 30 5 12 -3 13 -42 6 -26 -4 -65 -8 -87
-8 -39 0 -40 1 -50 45 -15 69 -37 93 -84 94 -22 1 -48 -1 -58 -5z"/>
<path d="M2861 1088 c-1 -22 -9 -31 -45 -48 -55 -25 -56 -25 -56 0 0 21 -16
27 -86 32 -53 4 -49 -19 4 -28 60 -10 72 -15 72 -30 0 -18 4 -18 41 1 16 9 34
13 39 10 5 -3 15 3 22 14 7 12 16 17 23 12 5 -5 28 -11 50 -14 22 -3 48 -8 58
-12 12 -5 17 -2 17 9 0 22 -47 39 -85 32 -27 -5 -33 -3 -42 21 l-11 28 -1 -27z"/>
<path d="M300 1006 c0 -15 37 -32 48 -22 6 6 -27 35 -40 36 -5 0 -8 -6 -8 -14z"/>
<path d="M2596 1011 c-3 -5 1 -12 10 -15 21 -8 56 3 49 15 -8 12 -52 12 -59 0z"/>
<path d="M580 992 c-44 -21 -45 -21 -37 -28 3 -3 22 -1 43 6 29 10 45 10 77
-1 32 -10 41 -11 45 -1 2 7 9 9 15 5 9 -5 8 -2 0 8 -7 8 -31 16 -54 18 -24 1
-45 3 -48 5 -3 2 -22 -4 -41 -12z"/>
<path d="M2395 991 c-3 -5 4 -12 15 -16 11 -3 20 -10 20 -15 0 -4 9 -6 20 -3
24 6 26 28 4 37 -23 9 -52 7 -59 -3z"/>
<path d="M2915 983 c-11 -3 -25 -10 -32 -15 -7 -5 -38 -8 -70 -6 l-58 3 -18
-37 c-23 -46 -32 -48 -43 -5 l-8 32 -4 -35 c-5 -45 -18 -60 -53 -60 -16 0 -29
-5 -29 -10 0 -12 58 -8 80 5 8 4 2 -5 -15 -21 -34 -33 -97 -58 -137 -56 -16 1
-28 -3 -28 -9 0 -15 -39 -49 -57 -49 -11 0 -11 4 -3 20 9 16 8 20 -7 21 -10 0
-54 2 -98 5 -77 4 -79 3 -52 -11 15 -9 36 -15 45 -14 9 1 34 1 54 0 36 -1 37
-2 26 -26 -6 -14 -15 -25 -20 -25 -4 0 -8 -12 -7 -27 l0 -28 12 23 c13 28 75
62 112 62 14 0 43 9 65 20 22 11 47 20 56 20 9 0 25 12 37 26 19 25 21 25 34
8 7 -9 16 -14 20 -9 5 4 3 10 -4 12 -16 6 18 80 46 99 27 19 151 54 191 54 34
0 39 14 11 30 -11 5 -21 9 -23 9 -2 -1 -12 -4 -23 -6z"/>
<path d="M2444 936 c-19 -14 -19 -15 0 -50 24 -44 36 -38 36 20 0 47 -5 52
-36 30z"/>
<path d="M1358 903 c-22 -49 -22 -63 -2 -63 8 0 12 -4 9 -10 -13 -21 11 -8 28
15 18 25 11 35 -11 13 -17 -17 -25 -3 -12 22 6 11 10 31 8 42 -2 17 -6 13 -20
-19z"/>
<path d="M2233 925 c-18 -8 -33 -17 -33 -20 0 -3 9 -1 19 5 11 5 31 10 45 10
14 0 26 5 26 10 0 14 -19 12 -57 -5z"/>
<path d="M992 918 c-7 -7 -12 -22 -12 -35 0 -13 -8 -28 -19 -34 -11 -7 -16
-19 -13 -31 6 -23 21 -23 29 0 3 9 11 23 17 31 8 10 18 81 11 81 -1 0 -6 -5
-13 -12z"/>
<path d="M2980 896 c-11 -21 -10 -27 4 -41 15 -15 16 -13 16 24 0 23 -1 41 -3
41 -2 0 -9 -11 -17 -24z"/>
<path d="M250 866 c0 -18 25 -28 80 -32 l45 -3 -35 10 c-19 6 -47 17 -62 24
-23 12 -28 12 -28 1z"/>
<path d="M493 838 c-24 -10 -43 -25 -43 -33 0 -23 24 -18 49 9 13 14 35 26 50
28 22 3 23 4 6 9 -11 3 -39 -3 -62 -13z"/>
<path d="M780 850 c-8 -5 -12 -11 -9 -14 10 -11 99 -34 93 -25 -3 5 -11 9 -19
9 -8 0 -22 9 -32 19 -13 14 -23 17 -33 11z"/>
<path d="M645 842 c6 -5 23 -12 38 -16 21 -5 28 -3 25 6 -3 7 -20 14 -39 16
-21 2 -30 0 -24 -6z"/>
<path d="M570 820 c-15 -13 -18 -20 -9 -20 15 1 49 23 49 34 0 12 -17 6 -40
-14z"/>
<path d="M2353 828 c-44 -9 -59 -28 -24 -28 33 0 121 23 121 32 0 10 -42 9
-97 -4z"/>
<path d="M1321 813 c-7 -8 -14 -28 -15 -44 -1 -15 -7 -34 -14 -41 -24 -24 -12
-48 15 -30 13 8 37 93 31 115 -3 13 -5 13 -17 0z"/>
<path d="M2773 812 c-18 -10 -33 -25 -33 -35 0 -19 11 -16 43 11 16 14 19 14
31 -3 9 -12 15 -15 20 -7 4 7 4 12 0 12 -4 0 1 9 11 20 18 20 17 20 -11 19
-16 0 -44 -8 -61 -17z"/>
<path d="M2874 805 c6 -22 4 -26 -8 -22 -9 4 -16 2 -16 -3 0 -6 6 -10 13 -10
16 -1 -31 -40 -48 -40 -7 0 -15 7 -19 15 -6 17 -26 21 -26 5 0 -5 10 -18 22
-29 l21 -21 31 23 c17 13 39 26 49 30 9 3 17 16 17 27 0 23 1 23 53 11 20 -5
37 -5 37 -1 0 7 -58 24 -90 25 -8 0 -21 5 -29 9 -11 7 -13 3 -7 -19z"/>
<path d="M13 803 c-7 -2 -13 -14 -13 -24 0 -19 2 -19 22 -5 30 21 41 20 53 -6
6 -13 23 -25 40 -29 48 -9 90 -35 123 -76 42 -53 49 -36 10 22 -26 39 -45 54
-93 74 -33 14 -62 28 -65 32 -7 9 -63 19 -77 12z"/>
<path d="M1035 781 c12 -5 27 -16 34 -25 14 -17 31 -21 31 -8 -1 18 -17 30
-50 36 -25 4 -29 3 -15 -3z"/>
<path d="M536 739 c-17 -33 -4 -39 32 -13 27 19 28 30 2 37 -14 4 -23 -3 -34
-24z"/>
<path d="M903 734 c15 -14 34 -23 42 -20 20 7 35 -16 37 -57 1 -27 7 -38 25
-46 12 -6 23 -16 23 -22 0 -9 -3 -9 -14 0 -18 16 -24 -2 -19 -56 4 -47 4 -47
-49 -33 -25 7 -44 22 -58 45 -12 19 -28 35 -36 35 -20 0 -17 -14 6 -35 11 -10
20 -24 20 -31 0 -7 10 -14 22 -16 12 -2 23 -8 25 -14 4 -12 -158 13 -167 26
-3 4 -24 8 -48 8 -40 2 -43 0 -37 -21 9 -29 33 -47 53 -39 10 4 12 7 4 10 -22
7 -13 34 11 30 17 -2 23 -11 25 -36 3 -28 -1 -34 -29 -46 -40 -17 -69 -8 -89
27 -12 22 -13 31 -3 46 12 19 11 19 -23 5 -20 -8 -33 -10 -29 -4 3 5 -6 15
-20 20 -37 14 -37 13 -10 -15 30 -29 31 -41 6 -48 -15 -4 -19 0 -16 14 3 14
-2 19 -17 19 -15 0 -19 -5 -15 -20 4 -15 0 -20 -13 -20 -11 0 -22 5 -25 10 -4
6 -15 8 -25 5 -13 -4 -19 1 -23 24 -4 19 -13 31 -26 33 -20 3 -20 4 -3 38 9
19 20 37 24 38 11 5 10 44 -2 62 -5 8 -10 13 -11 10 -1 -5 -6 -28 -12 -52 -12
-47 -20 -59 -35 -53 -10 4 -30 9 -47 12 -16 3 -46 18 -66 34 -45 35 -62 38
-25 4 30 -28 32 -39 11 -79 -16 -29 -11 -71 6 -61 5 4 9 16 9 28 0 34 12 46
56 53 40 6 42 5 53 -26 15 -44 16 -41 -29 -91 -37 -41 -40 -47 -34 -86 6 -38
4 -43 -14 -43 -16 0 -20 -8 -24 -50 -3 -28 -7 -52 -9 -55 -8 -7 -98 16 -108
28 -8 10 -16 41 -20 80 -1 4 -5 7 -9 7 -14 0 0 -75 16 -88 10 -7 17 -18 17
-25 0 -7 15 -12 35 -12 30 0 38 -5 52 -35 13 -25 18 -29 18 -15 0 11 9 37 20
58 11 20 20 45 20 54 0 10 7 27 15 37 8 11 15 37 15 58 l0 38 75 0 c64 0 74 2
68 16 -4 11 -8 12 -13 4 -5 -8 -19 -8 -50 -1 -24 5 -48 7 -53 4 -5 -3 -1 9 7
26 18 33 34 38 69 19 52 -28 157 -25 165 4 5 21 32 24 32 4 0 -7 9 -25 21 -40
22 -28 56 -34 92 -15 28 15 37 28 37 56 0 29 7 32 55 24 25 -4 40 -12 41 -21
3 -43 5 -50 14 -50 6 0 10 6 10 13 0 6 16 23 36 37 l36 24 19 -23 c11 -13 19
-22 20 -20 0 2 2 20 4 39 6 55 11 79 18 86 28 28 -48 164 -90 164 -8 0 -16 7
-19 15 -4 8 -16 15 -27 15 -21 0 -20 -2 6 -26z"/>
<path d="M1978 739 c-19 -10 -24 -29 -9 -29 5 0 19 9 32 20 26 21 9 28 -23 9z"/>
<path d="M420 715 c0 -25 14 -34 24 -16 8 12 -3 41 -15 41 -5 0 -9 -11 -9 -25z"/>
<path d="M2640 725 c-17 -20 -83 -55 -105 -55 -8 0 -15 7 -15 15 0 11 -8 10
-37 -8 -21 -12 -46 -30 -56 -40 -29 -29 -63 -178 -37 -162 6 3 10 19 10 35 0
41 10 60 30 60 10 0 20 6 22 13 3 6 27 17 54 23 30 6 49 15 49 24 0 7 6 15 13
18 7 2 10 -2 6 -12 -5 -12 -2 -15 10 -10 9 3 13 10 10 16 -8 12 26 37 51 38
23 0 75 -51 75 -74 0 -9 7 -16 16 -16 12 0 15 -6 10 -25 -4 -14 -3 -25 1 -24
23 4 30 -4 31 -36 1 -25 -3 -35 -13 -35 -8 0 -15 -7 -15 -15 0 -21 22 -19 48
5 21 20 21 23 7 56 -13 31 -84 139 -133 202 -17 22 -19 22 -32 7z"/>
<path d="M46 704 c-4 -10 -3 -21 1 -25 11 -10 63 1 63 13 0 5 -5 6 -11 3 -5
-4 -18 0 -28 9 -17 16 -19 16 -25 0z"/>
<path d="M2748 658 c69 -93 95 -146 88 -178 -3 -17 -1 -30 4 -30 17 0 11 -64
-9 -102 -10 -20 -21 -51 -25 -69 -5 -26 -4 -29 8 -20 11 10 13 4 9 -32 -3 -27
-1 -47 6 -51 6 -4 11 -15 11 -24 1 -23 37 -65 52 -60 8 3 3 14 -15 32 -24 24
-26 30 -15 43 7 9 12 24 10 35 -2 10 4 21 12 24 9 3 16 11 16 16 0 7 -5 7 -12
1 -21 -15 -41 -10 -45 12 -7 35 -7 39 12 78 16 35 17 79 2 137 -2 8 -7 32 -12
53 -4 20 -11 40 -16 43 -5 3 -7 9 -4 14 3 4 -2 13 -10 20 -7 6 -11 18 -9 25 6
14 -30 57 -40 48 -3 -4 -6 1 -6 9 0 15 -19 28 -41 28 -5 0 8 -24 29 -52z"/>
<path d="M0 640 c0 -29 2 -51 4 -49 8 8 10 88 3 95 -4 4 -7 -17 -7 -46z"/>
<path d="M143 676 c4 -10 7 -26 7 -37 0 -10 4 -19 10 -19 14 0 5 63 -10 68 -9
3 -11 -1 -7 -12z"/>
<path d="M1325 677 c-6 -14 -10 -16 -16 -6 -6 11 -9 10 -12 -1 -37 -119 -36
-110 -11 -110 18 0 24 5 24 23 0 13 7 38 16 56 8 17 14 37 11 44 -3 8 -7 6
-12 -6z"/>
<path d="M2825 680 c-6 -10 24 -70 36 -70 4 0 9 9 12 20 3 11 12 20 21 20 16
0 46 -48 46 -75 0 -8 7 -15 15 -15 18 0 19 9 4 47 -22 59 -112 108 -134 73z"/>
<path d="M753 663 c-7 -2 -13 -11 -13 -19 0 -8 -9 -14 -20 -14 -10 0 -24 -9
-30 -20 -8 -16 -8 -20 4 -20 8 0 18 5 21 11 4 5 18 14 31 19 14 6 24 18 24 30
0 11 -1 20 -2 19 -2 0 -9 -3 -15 -6z"/>
<path d="M1936 645 c-20 -30 -20 -36 -2 -29 16 6 40 54 27 54 -5 0 -16 -11
-25 -25z"/>
<path d="M70 649 c0 -4 7 -12 15 -19 18 -15 42 0 31 18 -7 12 -46 12 -46 1z"/>
<path d="M490 606 c0 -30 5 -58 10 -61 16 -10 12 -38 -5 -31 -8 3 -15 1 -15
-4 0 -6 9 -10 19 -10 23 0 36 42 21 70 -5 10 -10 35 -10 54 0 20 -4 36 -10 36
-5 0 -10 -24 -10 -54z"/>
<path d="M590 570 c-30 -12 -38 -19 -24 -19 22 -1 94 25 94 34 0 9 -25 4 -70
-15z"/>
<path d="M2580 554 c0 -9 22 -25 55 -39 42 -19 56 -31 61 -52 10 -41 33 -83
45 -83 6 0 9 7 6 15 -10 24 9 26 29 3 14 -15 16 -22 7 -25 -20 -7 -15 -19 7
-19 16 0 20 6 18 25 -2 14 -12 30 -23 36 -32 16 -76 52 -74 62 5 30 -16 50
-62 62 -27 7 -49 17 -49 22 0 5 -4 9 -10 9 -5 0 -10 -7 -10 -16z"/>
<path d="M705 551 c-18 -4 -25 -9 -18 -14 6 -4 23 -3 37 3 14 5 34 7 43 4 15
-5 16 -4 3 5 -16 12 -20 12 -65 2z"/>
<path d="M1296 518 c-6 -21 -15 -28 -32 -28 -19 0 -24 -5 -24 -26 0 -14 4 -23
10 -19 6 3 10 13 10 21 0 8 6 14 14 14 20 0 38 26 33 47 -3 14 -6 12 -11 -9z"/>
<path d="M0 522 c1 -17 17 -31 35 -28 11 2 23 -1 26 -7 4 -5 11 -8 17 -6 19 7
-12 35 -45 42 -18 4 -33 3 -33 -1z"/>
<path d="M1054 467 c1 -38 -1 -42 -23 -42 -20 0 -26 -8 -35 -40 -7 -25 -20
-44 -34 -50 -18 -8 -22 -18 -22 -50 1 -35 2 -37 12 -20 16 29 16 29 33 15 22
-18 19 -52 -9 -92 -29 -43 -19 -68 25 -68 17 0 28 4 24 9 -3 5 -1 12 5 16 14
9 13 68 -2 83 -9 9 -9 15 0 24 9 9 12 9 13 -2 2 -20 16 76 25 171 4 47 3 78
-3 82 -6 4 -10 -11 -9 -36z"/>
<path d="M1090 473 c0 -16 5 -35 10 -43 8 -12 10 -11 10 8 0 12 9 31 20 42 20
20 20 20 -10 20 -26 0 -30 -4 -30 -27z"/>
<path d="M2508 483 c-38 -15 -54 -39 -20 -31 15 4 17 0 14 -22 -3 -22 0 -28
20 -32 26 -5 108 26 108 40 0 12 -35 22 -80 22 -33 1 -34 2 -16 15 29 22 16
25 -26 8z"/>
<path d="M2180 453 c-51 -9 -165 -46 -153 -50 7 -2 40 3 75 13 73 20 157 30
122 15 -12 -5 -25 -14 -28 -19 -9 -15 31 -2 45 14 19 23 55 17 74 -12 9 -15
12 -23 6 -20 -17 11 -13 -10 8 -35 22 -28 38 -20 21 10 -7 14 -7 21 0 21 18 0
11 22 -16 46 -20 19 -35 24 -77 23 -29 -1 -63 -4 -77 -6z"/>
<path d="M2401 441 c-9 -6 -10 -10 -2 -16 9 -5 9 -11 -1 -22 -7 -9 -13 -21
-13 -27 -1 -21 -28 -66 -40 -66 -21 0 -40 -59 -27 -81 16 -25 15 -56 -3 -115
-9 -27 -18 -63 -20 -81 -5 -30 -3 -32 17 -24 12 4 26 21 32 37 12 37 54 104
65 104 4 0 13 11 19 25 10 22 9 30 -8 53 -30 41 -37 95 -14 119 53 53 49 128
-5 94z m-28 -178 c27 -53 28 -67 3 -96 -13 -15 -25 -27 -28 -27 -2 0 -3 28 -2
63 3 101 4 105 27 60z"/>
<path d="M1951 423 c-17 -19 30 -17 55 2 18 13 17 14 -12 12 -17 -1 -37 -8
-43 -14z"/>
<path d="M90 408 c1 -23 29 -83 30 -63 0 6 5 3 11 -5 7 -11 8 -6 3 20 -8 43
-12 48 -25 30 -8 -12 -9 -10 -4 7 3 12 1 24 -5 28 -6 4 -10 -3 -10 -17z"/>
<path d="M236 416 c3 -9 10 -16 15 -16 5 0 9 -7 9 -16 0 -8 5 -12 11 -9 7 5 6
14 -4 28 -17 26 -39 35 -31 13z"/>
<path d="M575 381 c-8 -13 12 -24 27 -15 7 5 26 7 43 6 23 -2 26 0 15 8 -19
12 -77 13 -85 1z"/>
<path d="M533 373 c-12 -2 -27 -11 -33 -19 -20 -23 17 -18 42 6 12 11 20 19
17 19 -2 -1 -14 -4 -26 -6z"/>
<path d="M1960 357 c-13 -10 -31 -40 -49 -82 -2 -5 6 -1 18 9 11 11 21 26 21
34 0 8 6 12 13 9 8 -3 20 -1 28 5 11 8 10 9 -4 4 -11 -3 -16 -2 -12 4 3 6 15
10 25 10 10 0 22 5 25 10 9 14 -47 12 -65 -3z"/>
<path d="M2086 357 c28 -8 67 -24 87 -36 45 -28 49 -11 5 20 -21 16 -49 24
-87 26 l-56 3 51 -13z"/>
<path d="M2510 343 c0 -14 -8 -23 -22 -26 -13 -2 -6 -3 14 -2 26 2 42 -3 54
-16 14 -15 14 -19 3 -20 -31 -2 -74 3 -79 10 -7 11 -50 20 -50 11 0 -4 9 -10
21 -13 17 -5 18 -8 8 -25 -8 -13 -9 -24 -1 -38 10 -17 11 -17 17 9 7 28 9 28
66 23 73 -7 75 4 14 64 -39 38 -45 41 -45 23z"/>
<path d="M399 311 c7 -12 15 -20 19 -17 4 2 15 -6 24 -19 17 -22 17 -24 -5
-37 -39 -26 -75 -30 -86 -11 -9 16 -10 15 -8 -6 1 -20 20 -33 114 -79 87 -42
115 -61 119 -79 4 -12 12 -23 20 -23 18 0 18 16 0 23 -19 7 -30 58 -15 67 9 6
7 14 -5 31 -17 25 -19 21 -16 -23 1 -16 -1 -28 -4 -28 -10 0 -43 75 -39 87 3
7 -3 23 -11 35 -9 12 -16 34 -16 49 0 21 -6 28 -27 32 -16 3 -39 8 -52 13 -21
6 -22 5 -12 -15z m81 -95 c0 -41 -16 -55 -37 -33 -13 13 -13 18 2 41 23 35 35
33 35 -8z"/>
<path d="M2095 313 c39 -12 65 -31 123 -89 40 -41 75 -74 77 -74 3 0 5 9 5 19
0 22 -76 117 -91 113 -5 -1 -29 9 -53 23 -24 14 -57 25 -77 24 -32 0 -32 -1
16 -16z"/>
<path d="M583 314 c-14 -6 -18 -34 -5 -34 4 0 13 5 18 10 13 13 61 15 93 5 18
-6 23 -5 19 6 -5 14 -99 24 -125 13z"/>
<path d="M1146 283 c-3 -10 -6 -22 -7 -28 0 -5 -5 -16 -11 -23 -8 -9 -7 -11 4
-7 9 4 19 20 22 37 7 35 1 50 -8 21z"/>
<path d="M1275 280 c3 -6 22 -10 42 -10 45 0 35 13 -13 17 -21 1 -32 -1 -29
-7z"/>
<path d="M1984 265 c27 -21 53 -20 36 0 -7 8 -22 15 -34 15 -21 -1 -21 -1 -2
-15z"/>
<path d="M578 260 c-30 -18 14 -100 54 -100 15 0 18 -8 18 -42 0 -24 5 -50 10
-58 7 -11 10 -6 10 22 0 54 8 67 46 74 18 3 38 12 45 20 6 8 17 14 25 14 15 0
87 60 80 67 -2 2 -26 -9 -53 -26 -27 -17 -73 -36 -101 -42 -45 -11 -54 -10
-70 5 -12 10 -26 14 -36 10 -14 -6 -17 -2 -14 17 2 19 10 25 36 27 17 2 32 7
32 13 0 12 -60 11 -82 -1z"/>
<path d="M2930 262 c0 -4 5 -13 11 -19 7 -7 8 -19 4 -30 -5 -10 -9 -20 -9 -23
-1 -3 -5 -11 -10 -18 -10 -17 8 -37 24 -27 6 4 9 12 7 18 -2 7 0 27 5 45 7 23
6 38 -3 48 -12 15 -29 19 -29 6z"/>
<path d="M50 244 c0 -3 13 -10 29 -15 30 -10 36 -36 17 -67 -4 -7 -4 -22 0
-34 6 -20 8 -18 25 17 26 54 24 62 -21 85 -41 21 -50 24 -50 14z"/>
<path d="M2515 238 c-11 -6 -28 -19 -38 -29 -17 -18 -17 -20 5 -49 12 -16 28
-30 35 -30 20 0 16 14 -9 29 l-22 14 23 18 c13 11 20 19 17 19 -4 0 -2 9 4 20
12 23 12 23 -15 8z"/>
<path d="M1180 206 c0 -7 -7 -19 -16 -27 -13 -10 -17 -10 -25 2 -8 11 -9 10
-7 -6 2 -15 -3 -20 -19 -20 -25 -1 -47 -18 -42 -34 2 -6 30 2 65 19 51 25 62
34 62 55 0 14 -4 25 -9 25 -5 0 -9 -6 -9 -14z"/>
<path d="M332 158 c-7 -7 -12 -17 -12 -22 0 -6 -18 -26 -39 -44 -35 -29 -60
-73 -43 -72 4 1 36 27 71 59 46 41 63 62 58 74 -8 20 -19 21 -35 5z"/>
<path d="M173 107 c1 -23 6 -33 15 -30 16 7 15 38 -2 52 -12 10 -14 7 -13 -22z"/>
<path d="M2977 110 c-9 -11 -24 -20 -34 -20 -12 0 -14 -3 -6 -11 8 -8 17 -8
31 0 10 6 22 7 26 4 3 -3 6 6 6 20 0 32 -1 33 -23 7z"/>
<path d="M2518 103 c-19 -23 -41 -63 -33 -63 3 0 15 9 27 20 12 11 28 20 35
20 7 0 13 9 13 20 0 25 -22 26 -42 3z"/>
<path d="M203 53 c-47 -46 -50 -53 -29 -53 12 0 83 90 74 94 -2 0 -22 -18 -45
-41z"/>
<path d="M940 62 c-42 -61 -42 -62 -26 -62 13 0 63 86 55 95 -3 2 -15 -13 -29
-33z"/>
<path d="M2844 82 c-13 -8 -16 -69 -4 -77 4 -3 10 15 12 40 2 25 3 45 3 45 0
0 -5 -4 -11 -8z"/>
<path d="M2544 45 c-4 -15 -2 -31 5 -38 8 -8 11 -7 12 3 0 8 2 23 4 32 5 29
-14 31 -21 3z"/>
<path d="M605 19 l-40 -18 43 -1 c23 0 42 2 42 4 0 2 3 11 6 20 8 20 -1 19
-51 -5z"/>
</g>
</svg>
